<svg width="161" height="166" viewBox="0 0 161 166" fill="none" xmlns="http://www.w3.org/2000/svg">
<path d="M86.1818 66C85.9394 62.9697 84.803 60.6061 82.7727 58.9091C80.7727 57.2121 77.7273 56.3636 73.6364 56.3636C71.0303 56.3636 68.8939 56.6818 67.2273 57.3182C65.5909 57.9242 64.3788 58.7576 63.5909 59.8182C62.803 60.8788 62.3939 62.0909 62.3636 63.4545C62.303 64.5758 62.5 65.5909 62.9545 66.5C63.4394 67.3788 64.197 68.1818 65.2273 68.9091C66.2576 69.6061 67.5758 70.2424 69.1818 70.8182C70.7879 71.3939 72.697 71.9091 74.9091 72.3636L82.5455 74C87.697 75.0909 92.1061 76.5303 95.7727 78.3182C99.4394 80.1061 102.439 82.2121 104.773 84.6364C107.106 87.0303 108.818 89.7273 109.909 92.7273C111.03 95.7273 111.606 99 111.636 102.545C111.606 108.667 110.076 113.848 107.045 118.091C104.015 122.333 99.6818 125.561 94.0455 127.773C88.4394 129.985 81.697 131.091 73.8182 131.091C65.7273 131.091 58.6667 129.894 52.6364 127.5C46.6364 125.106 41.9697 121.424 38.6364 116.455C35.3333 111.455 33.6667 105.061 33.6364 97.2727H57.6364C57.7879 100.121 58.5 102.515 59.7727 104.455C61.0455 106.394 62.8333 107.864 65.1364 108.864C67.4697 109.864 70.2424 110.364 73.4545 110.364C76.1515 110.364 78.4091 110.03 80.2273 109.364C82.0455 108.697 83.4242 107.773 84.3636 106.591C85.303 105.409 85.7879 104.061 85.8182 102.545C85.7879 101.121 85.3182 99.8788 84.4091 98.8182C83.5303 97.7273 82.0758 96.7576 80.0455 95.9091C78.0152 95.0303 75.2727 94.2121 71.8182 93.4545L62.5455 91.4545C54.303 89.6667 47.803 86.6818 43.0455 82.5C38.3182 78.2879 35.9697 72.5455 36 65.2727C35.9697 59.3636 37.5455 54.197 40.7273 49.7727C43.9394 45.3182 48.3788 41.8485 54.0455 39.3636C59.7424 36.8788 66.2727 35.6364 73.6364 35.6364C81.1515 35.6364 87.6515 36.8939 93.1364 39.4091C98.6212 41.9242 102.848 45.4697 105.818 50.0455C108.818 54.5909 110.333 59.9091 110.364 66H86.1818Z" fill="#C229D0"/>
<path d="M135 133C125.402 146.844 112.344 156.63 97.155 161.632C81.9656 166.635 65.7179 166.231 50.7416 160.48C35.7653 154.729 22.8297 143.925 13.7897 129.618C4.74967 115.312 0.0695769 98.2364 0.42051 80.8414C0.771442 63.4464 6.13537 46.625 15.7431 32.7893C25.3509 18.9536 38.709 8.81436 53.902 3.82536C69.095 -1.16363 85.3424 -0.746075 100.315 5.01816C115.287 10.7824 128.215 21.5972 137.244 35.9119L125.5 60.5L119.277 49.5379C112.875 39.3887 103.709 31.7208 93.0938 27.6339C82.4784 23.547 70.9588 23.251 60.1868 26.7882C49.4148 30.3255 39.9438 37.5143 33.1318 47.324C26.3198 57.1336 22.5167 69.0601 22.2679 81.3934C22.0191 93.7266 25.3373 105.833 31.7468 115.977C38.1562 126.12 47.3277 133.78 57.946 137.858C68.5644 141.936 80.0842 142.222 90.8536 138.675C101.623 135.128 111.695 128.316 118.5 118.5L135 133Z" fill="#EB2188"/>
<rect x="118" y="95" width="17" height="38" fill="#EB2188"/>
<rect x="111" y="83" width="24" height="13" rx="1" fill="#EB2188"/>
<rect x="141" y="114" width="20" height="18" rx="2" fill="#EB2188"/>
</svg>
